<?xml version="1.0" standalone="no"?><!DOCTYPE svg PUBLIC "-//W3C//DTD SVG 1.1//EN" "http://www.w3.org/Graphics/SVG/1.1/DTD/svg11.dtd"><svg t="1523864005351" class="icon" style="" viewBox="0 0 1024 1024" version="1.1" xmlns="http://www.w3.org/2000/svg" p-id="2006" xmlns:xlink="http://www.w3.org/1999/xlink" width="200" height="200"><defs><style type="text/css"></style></defs><path d="M597.333333 512h64v120.32l104.106667 60.16-32 55.466667L597.333333 669.44V512M170.666667 85.333333h597.333333a85.333333 85.333333 0 0 1 85.333333 85.333334v260.266666c52.906667 53.76 85.333333 127.573333 85.333334 209.066667a298.666667 298.666667 0 0 1-298.666667 298.666667c-81.493333 0-155.306667-32.426667-209.066667-85.333334H170.666667a85.333333 85.333333 0 0 1-85.333334-85.333333V170.666667a85.333333 85.333333 0 0 1 85.333334-85.333334m0 554.666667v128h199.253333c-18.346667-38.826667-28.586667-82.346667-28.586667-128H170.666667m0-298.666667h256V213.333333H170.666667v128m597.333333 0V213.333333h-256v128h256M170.666667 554.666667h183.04c14.506667-49.066667 41.386667-93.013333 77.226666-128H170.666667v128m469.333333-121.6A206.933333 206.933333 0 0 0 433.066667 640c0 114.346667 92.586667 206.933333 206.933333 206.933333A206.933333 206.933333 0 0 0 846.933333 640c0-114.346667-92.586667-206.933333-206.933333-206.933333z" fill="" p-id="2007"></path></svg>